<?xml version="1.0" standalone="no"?>
<!DOCTYPE svg PUBLIC "-//W3C//DTD SVG 20010904//EN"
 "http://www.w3.org/TR/2001/REC-SVG-20010904/DTD/svg10.dtd">
<svg version="1.0" xmlns="http://www.w3.org/2000/svg"
 width="2180.000000pt" height="2180.000000pt" viewBox="0 0 2180.000000 2180.000000"
 preserveAspectRatio="xMidYMid meet">
<metadata>
Created by potrace 1.11, written by Peter Selinger 2001-2013
</metadata>
<g transform="translate(0.000000,2180.000000) scale(0.100000,-0.100000)"
fill="#000000" stroke="none">
<path d="M10730 19853 c-71 -10 -192 -37 -245 -55 -56 -18 -251 -98 -340 -138
-22 -10 -152 -66 -290 -125 -137 -58 -266 -113 -285 -122 -19 -8 -48 -21 -65
-28 -16 -7 -56 -24 -88 -39 -32 -14 -60 -26 -62 -26 -3 0 -25 -9 -50 -20 -25
-11 -66 -29 -91 -41 -26 -11 -69 -29 -97 -40 -28 -11 -69 -28 -92 -39 -22 -10
-90 -40 -150 -65 -137 -58 -159 -68 -215 -93 -25 -11 -83 -35 -130 -55 -47
-19 -110 -46 -140 -60 -30 -14 -84 -37 -120 -52 -36 -15 -78 -33 -95 -40 -51
-23 -110 -48 -120 -51 -10 -3 -379 -161 -440 -189 -16 -7 -158 -68 -315 -135
-157 -67 -298 -128 -315 -135 -16 -8 -127 -55 -245 -105 -118 -50 -228 -97
-245 -105 -16 -7 -79 -34 -140 -60 -60 -25 -119 -50 -130 -55 -33 -15 -103
-45 -217 -94 -146 -62 -318 -154 -348 -186 -3 -3 -22 -18 -42 -33 -48 -35
-175 -162 -208 -207 -14 -18 -34 -45 -46 -59 -82 -104 -175 -303 -209 -447 -8
-34 -18 -75 -22 -90 -4 -16 -9 -967 -10 -2114 -2 -1146 -7 -2087 -11 -2091 -4
-4 -83 -39 -177 -78 -93 -40 -184 -79 -201 -87 -17 -7 -159 -68 -315 -135
-156 -66 -297 -127 -314 -134 -16 -8 -253 -109 -525 -225 -272 -116 -508 -217
-525 -225 -16 -7 -158 -68 -315 -135 -157 -67 -298 -128 -315 -135 -26 -12
-78 -34 -210 -90 -16 -7 -46 -19 -65 -28 -19 -8 -84 -36 -145 -62 -60 -26
-123 -53 -140 -60 -16 -8 -79 -35 -140 -60 -60 -26 -123 -53 -140 -60 -16 -8
-79 -35 -140 -60 -60 -26 -123 -53 -140 -60 -16 -7 -64 -28 -105 -45 -41 -17
-93 -40 -115 -50 -23 -10 -101 -44 -175 -75 -193 -80 -355 -171 -420 -235 -9
-8 -39 -35 -67 -58 -28 -24 -75 -73 -104 -109 -30 -36 -60 -71 -66 -79 -7 -7
-13 -17 -13 -22 0 -6 -4 -12 -8 -14 -16 -6 -98 -153 -135 -238 -40 -95 -63
-176 -83 -295 -19 -116 -19 -4435 1 -4540 54 -291 173 -523 365 -710 132 -129
184 -162 535 -338 127 -63 439 -219 694 -347 255 -127 471 -236 480 -240 9 -4
45 -23 81 -41 36 -18 72 -36 80 -40 8 -4 116 -58 240 -120 124 -62 232 -115
240 -119 52 -27 147 -75 160 -81 8 -5 188 -94 399 -200 212 -105 392 -195 400
-200 9 -4 117 -58 241 -120 124 -62 232 -116 240 -120 8 -5 267 -134 575 -287
555 -276 634 -311 795 -343 69 -14 315 -18 390 -7 132 20 230 48 330 95 66 31
418 206 445 221 11 6 372 187 803 402 430 215 790 395 800 400 9 5 225 113
479 239 254 127 470 235 480 240 10 6 298 150 641 321 342 170 630 314 640
319 9 6 82 42 162 82 80 39 150 76 157 81 9 7 23 4 45 -10 18 -11 242 -124
498 -251 256 -128 472 -236 481 -241 9 -5 333 -167 720 -360 387 -194 767
-384 844 -423 77 -38 147 -73 155 -78 36 -17 146 -73 160 -80 8 -5 260 -130
559 -280 299 -149 551 -274 560 -279 9 -4 45 -23 81 -41 36 -18 72 -36 80 -40
121 -65 521 -255 570 -270 127 -40 250 -57 402 -54 79 2 157 6 173 9 17 4 54
11 83 17 60 12 195 59 245 85 39 21 -18 -8 530 265 254 126 476 237 492 246
17 9 37 20 45 24 8 5 295 148 638 319 342 170 630 314 640 320 9 5 366 183
792 396 426 213 924 461 1105 551 366 183 420 214 515 289 128 101 212 198
299 343 45 74 108 210 116 250 2 9 8 29 15 46 6 16 20 79 30 140 19 106 19
180 17 2325 -2 1218 -6 2231 -10 2250 -4 19 -13 58 -19 85 -7 28 -13 52 -13
55 -13 79 -130 316 -202 411 -177 234 -330 345 -683 494 -74 31 -150 63 -167
71 -65 28 -103 45 -418 179 -176 75 -333 142 -350 150 -16 7 -221 95 -455 195
-526 225 -476 204 -532 229 -26 11 -50 21 -53 21 -2 0 -28 11 -57 24 -126 57
-147 66 -152 66 -3 0 -31 12 -63 26 -72 33 -43 20 -508 219 -214 91 -403 172
-420 180 -16 7 -156 67 -310 133 -154 65 -300 128 -325 139 -25 12 -117 51
-205 88 -88 37 -163 70 -167 74 -4 3 -9 947 -11 2096 -3 1925 -4 2095 -20
2158 -104 420 -358 733 -745 921 -41 19 -83 38 -95 42 -12 4 -47 18 -77 32
-65 29 -74 33 -260 112 -79 34 -158 67 -175 75 -16 8 -79 35 -140 60 -60 26
-125 53 -142 61 -18 8 -48 20 -65 28 -50 21 -598 256 -635 272 -18 8 -48 20
-65 28 -18 8 -130 55 -248 106 -118 51 -228 98 -245 105 -16 8 -111 48 -210
90 -99 43 -193 83 -210 91 -16 7 -205 88 -420 179 -214 92 -409 175 -432 186
-23 10 -44 19 -47 19 -3 0 -29 11 -58 24 -96 43 -142 63 -208 91 -71 29 -106
44 -160 68 -19 8 -100 43 -180 77 -130 55 -167 71 -235 101 -162 70 -212 90
-277 112 -128 43 -231 59 -388 61 -80 1 -156 1 -170 -1z m188 -1289 c21 -9 52
-23 70 -30 17 -8 47 -20 65 -28 17 -8 61 -27 97 -41 36 -15 83 -35 105 -45 31
-14 760 -327 920 -395 17 -7 46 -19 65 -28 19 -8 195 -83 390 -167 195 -84
369 -158 385 -165 17 -8 143 -62 280 -120 138 -59 264 -113 280 -120 17 -8
143 -62 280 -120 138 -59 274 -118 303 -131 29 -13 55 -24 57 -24 3 0 27 -10
53 -21 26 -12 62 -28 80 -35 17 -8 47 -20 65 -28 17 -8 82 -35 142 -61 61 -26
133 -57 160 -69 28 -12 166 -71 307 -132 193 -82 254 -112 245 -120 -7 -6
-158 -73 -337 -149 -179 -76 -343 -146 -365 -156 -22 -10 -188 -81 -370 -159
-181 -77 -339 -144 -350 -149 -73 -32 -105 -46 -231 -99 -77 -33 -163 -70
-190 -81 -27 -12 -58 -26 -69 -30 -11 -5 -38 -16 -60 -26 -22 -10 -260 -112
-530 -227 -269 -115 -503 -215 -520 -223 -23 -10 -441 -189 -630 -270 -16 -7
-46 -20 -65 -28 -19 -8 -178 -76 -353 -151 l-317 -136 -1613 691 c-886 380
-1634 701 -1662 713 -27 12 -292 125 -587 252 -296 126 -538 232 -538 237 0 4
4 7 10 7 5 0 33 11 62 24 29 14 276 120 548 236 272 116 509 217 525 225 17 7
158 68 315 135 157 67 299 128 315 135 17 8 80 35 140 60 61 26 124 53 140 60
17 8 127 55 245 105 118 51 229 98 245 105 17 7 80 34 140 60 166 71 167 72
205 88 19 8 69 29 110 47 41 17 93 40 115 50 22 9 79 34 128 54 48 20 108 45
135 57 60 27 39 18 497 214 215 92 413 177 440 189 46 21 75 33 83 35 2 1 20
-6 40 -15z m4440 -4576 l-3 -1331 -65 -27 c-36 -15 -91 -39 -123 -53 -32 -15
-60 -27 -63 -27 -3 0 -26 -10 -52 -21 -26 -12 -240 -105 -477 -206 -236 -101
-448 -192 -470 -202 -22 -10 -69 -31 -105 -46 -112 -47 -2332 -1001 -2394
-1029 -32 -14 -65 -26 -72 -26 -12 0 -14 208 -14 1331 l0 1330 38 16 c20 8
285 121 587 250 303 129 687 293 855 365 168 71 323 138 345 148 22 10 69 30
105 44 36 15 84 36 107 47 24 10 45 19 48 19 2 0 28 11 57 24 29 14 193 84
363 156 171 72 324 137 340 145 17 7 138 59 270 115 132 56 258 110 280 120
22 10 85 37 140 60 55 23 114 48 130 55 17 7 53 22 80 34 28 12 57 26 65 31 8
5 18 9 23 9 4 1 6 -598 5 -1331z m-9535 -2474 c34 -15 80 -35 102 -45 22 -10
274 -118 560 -240 286 -122 538 -229 560 -239 22 -10 148 -64 280 -120 132
-56 258 -110 280 -120 22 -10 273 -118 558 -240 285 -121 533 -227 550 -235
51 -21 89 -38 317 -135 118 -50 234 -100 257 -111 24 -10 82 -35 130 -55 49
-20 111 -46 138 -59 28 -12 92 -40 142 -61 51 -22 93 -41 93 -44 0 -4 -155
-72 -470 -205 -41 -18 -638 -273 -1325 -568 -688 -295 -1262 -540 -1275 -545
-21 -8 -68 -29 -165 -72 -11 -5 -117 -50 -235 -100 -118 -51 -235 -101 -260
-112 -25 -10 -54 -23 -65 -27 -11 -5 -38 -16 -60 -26 -22 -10 -71 -30 -108
-46 l-68 -28 -377 160 c-207 89 -400 172 -429 185 -28 13 -54 24 -57 24 -3 0
-29 11 -58 24 -29 13 -460 198 -958 411 -498 213 -923 395 -945 405 -22 10
-101 43 -175 75 -74 31 -148 63 -165 70 -16 8 -142 62 -280 120 -137 59 -268
115 -290 125 -22 9 -97 41 -167 71 -71 30 -128 56 -128 59 0 3 116 54 258 114
141 60 280 120 307 132 28 13 347 150 710 305 363 154 678 289 700 299 22 10
132 57 245 105 113 48 223 95 245 105 22 10 101 44 175 75 74 31 153 65 175
75 22 10 148 64 280 120 132 56 254 108 270 116 17 7 143 61 280 119 138 59
273 117 300 129 43 20 73 32 83 35 1 1 31 -11 65 -25z m10215 10 c53 -24 63
-28 452 -194 195 -83 368 -157 385 -165 16 -7 95 -41 175 -75 80 -34 159 -68
175 -75 33 -14 255 -109 375 -160 163 -69 557 -237 585 -250 54 -24 256 -111
535 -229 151 -65 299 -128 328 -142 29 -13 55 -24 57 -24 2 0 28 -11 57 -24
29 -13 98 -42 153 -66 104 -43 202 -86 293 -126 29 -13 55 -24 57 -24 2 0 33
-13 67 -28 35 -16 116 -51 181 -78 64 -27 117 -51 117 -54 0 -3 -231 -103
-513 -224 -281 -120 -530 -227 -552 -236 -22 -10 -69 -30 -105 -45 -36 -15
-83 -35 -105 -45 -47 -21 -134 -58 -805 -345 -278 -119 -518 -222 -535 -229
-16 -8 -59 -26 -95 -41 -36 -15 -78 -33 -95 -41 -16 -7 -158 -67 -315 -134
-157 -67 -309 -133 -338 -146 -29 -13 -55 -24 -58 -24 -3 0 -31 -12 -62 -26
-31 -14 -113 -50 -182 -79 -69 -29 -147 -62 -173 -74 -93 -43 -91 -42 -164
-12 -61 25 -2606 1115 -2678 1146 -72 32 -128 56 -255 110 -74 31 -154 66
-177 76 -23 10 -44 19 -47 19 -2 0 -39 16 -80 35 -42 19 -78 35 -81 35 -2 0
-33 13 -67 28 -35 16 -179 77 -320 138 -141 60 -254 112 -249 117 4 4 149 68
322 142 173 75 323 140 334 145 11 5 254 109 540 230 286 121 527 225 536 229
9 5 55 25 103 45 47 20 105 45 129 55 23 11 182 79 352 151 171 72 324 137
340 145 17 7 190 81 385 165 195 83 364 155 375 161 30 14 600 258 603 259 2
0 20 -7 40 -16z m-5798 -4494 l0 -1570 -1920 -960 -1920 -960 2 1712 3 1711
65 27 c90 37 396 168 445 190 22 10 111 48 197 84 87 37 170 73 185 81 15 8
33 15 39 15 5 0 28 9 50 19 21 10 147 65 279 121 132 56 258 110 280 120 22
10 85 37 140 60 55 23 118 50 140 59 22 10 79 35 128 55 48 20 106 45 130 55
23 11 276 119 562 241 286 121 534 227 550 234 17 8 91 39 165 71 74 31 154
66 177 76 24 10 45 19 48 19 2 0 30 12 62 26 83 38 186 83 191 84 1 0 2 -706
2 -1570z m10240 0 l0 -1570 -1920 -960 -1920 -960 2 1711 3 1711 115 49 c63
27 124 53 135 59 33 15 99 43 110 45 6 1 33 13 60 25 28 12 64 28 80 35 17 7
50 22 75 33 25 11 185 79 355 152 171 72 324 138 340 145 17 7 185 79 375 160
190 80 364 155 387 166 24 10 45 19 48 19 2 0 28 11 57 24 29 14 298 129 598
256 300 128 563 240 585 250 43 20 508 219 513 220 1 0 2 -706 2 -1570z"/>
</g>
</svg>
